<svg xmlns="http://www.w3.org/2000/svg" viewBox="0 -0.1 181.5 85.7"><path d="M174.1 27.5l-12.9-12.1-15.8-3V2.2H41v10.1l-17.1 3.3-12.9 12L8.3 48S17 62.4 18.6 63.3s18.7 9.8 19.7 9.8h2.9l.1 9.5 18.2 2.9h29l57.1-8.5v-4.1h1.5c1 0 18.1-9 19.7-9.8 1.6-.9 10.3-15.3 10.3-15.3z" fill="#fff"/><g fill="#a7a9ab"><path d="M71 24.8l-1.7-2.1s-1.5 1.6-1.5 2v.1h-2.3l1.3-5.3.1-.3c.3-.9 1.2-1.5 2.2-1.5h12.7l3.8-15.5-1.6-2s-1.5 1.6-1.5 2v.1H60.9c-2.5 0-4.6 1.6-5.3 3.9l-.2.5-13.5 54.4-1.5.4-.8.3 1.6 2h14.6l6-23.9h5.4zM96.4 41.4l-.1.5-1.4 5.5-.1.3c-.1.5-.6.9-1.2.9h-3.7l2.2-8.8h3c.7 0 1.3.6 1.3 1.3zm17-11v-.7c0-2.6-2-4.9-4.7-4.9H80.4l-14.3 58-1.5.4-.8.3 1.7 2h17l5.5-22h13.7c2.1 0 3.8-1.4 4.3-3.3l7.3-29.6zM142.5 17.1l-1.5-1.6s-1.7 1.8-1.7 2.1v.1h-2.1l3.6-14.4.3-1.3-1.6-2S138 1.6 138 2v.1h-11.6L113.1 56c-.1.4-.2.9-.2 1.3 0 3.2 2.7 5.8 5.9 5.8h12.3l3.5-14.2.3-1.2-1.6-2s-1.5 1.6-1.5 2v.1h-.3c-.7 0-1.3-.6-1.3-1.3v-.3l.3-1 3.1-12.4h5.1L142 19l.2-.9.1-.3z"/><path d="M63.4 70.4l-1.7-2-1.2 1 .1 1h.1-16c-15 0-27.2-11.8-27.2-26.3v-.3c0-14.5 12.3-26.3 27.2-26.3h2.5L51 2.1l-1.7-2-1.2 1 .1 1h.1-4C20.9 2.1 1.7 20.7 1.7 43.3v1.1c0 22.6 19.2 41.2 42.6 41.2h15.1zM87.3 17.6h30L121.1 2l-1.7-2-1.2 1 .1 1h.1-27.2L88 15l-1 .1-1.4.5zM88.4 85.6H140c22.8 0 41.5-18.6 41.5-41.3v-1.1c0-20.5-15.3-37.8-35.1-40.9l-3.1 12.5-1 .1-1.4.5 1.5 1.7c13.1 2.1 23.7 12.9 23.7 26.4v.5c0 14.5-11.9 26.4-26.5 26.4H92.1L89 82.9l-1 .1-1.4.5z"/></g><path d="M176.3 1.2c-2.4 0-4.4 2-4.4 4.4s2 4.4 4.4 4.4 4.4-2 4.4-4.4-2-4.4-4.4-4.4m0 9.5c-2.9 0-5.2-2.3-5.2-5.1s2.3-5.1 5.2-5.1 5.2 2.3 5.2 5.1-2.3 5.1-5.2 5.1" fill="#fff"/><path d="M176.4 5.2c.7 0 1.3-.2 1.3-1 0-.5-.3-.9-1-.9h-1.8v1.9zm-2.2-2.5h2.6c1 0 1.7.6 1.7 1.4 0 .7-.3 1.2-1 1.4.6.1.8.6.8 1.1s0 1.1.3 1.5h-.8c-.2-.2-.1-.8-.2-1.3s-.2-1-.9-1h-1.8v2.3h-.7z" fill="#fff"/><path d="M60.1 37.9h5.4l3.7-15.1h-5.4l1.3-5.3.1-.3c.3-.9 1.2-1.5 2.2-1.5h12.7L84 .1H59.2c-2.5 0-4.6 1.6-5.3 3.9l-.2.5-14.1 57.3h14.6zM94.7 39.4l-.1.5-1.4 5.5-.1.3c-.1.5-.6.9-1.2.9h-3.7l2.2-8.8h3c.7 0 1.3.6 1.3 1.3.1.1.1.2 0 .3m12.5-16.7H78.8l-15 60.8h17.1l5.5-22h13.7c2.1 0 3.8-1.4 4.3-3.3l7.3-29.6.1-.4v-.7c.1-2.5-2-4.8-4.6-4.8M124.8.1L111.5 54c-.1.4-.2.9-.2 1.3 0 3.2 2.7 5.8 5.9 5.8h12.3l3.8-15.4h-3.5c-.7 0-1.3-.6-1.3-1.3v-.3l.3-1 3.1-12.4h5.1l3.8-15.3h-5.2l3.9-15.5z"/><path d="M57.7 83.6l4-15.2H43c-15 0-27.2-11.8-27.2-26.3v-.3C15.8 27.2 28 15.4 43 15.4h2.5L49.3.1h-6.7C19.2 0 0 18.7 0 41.3v1.1C0 65 19.2 83.6 42.6 83.6zM115.6 15.6L119.4 0H89.5l-3.9 15.6zM144.7.3l-3.8 15.2c13.2 1.5 23.5 12.6 23.5 26.1v.3c0 14.5-11.9 26.4-26.5 26.4H90.4l-3.8 15.3h51.6c22.8 0 41.5-18.6 41.5-41.3v-1.1c.1-20.5-15.2-37.8-35-40.9" fill="#fede48"/></svg>