<?xml version="1.0" standalone="no"?>
<!DOCTYPE svg PUBLIC "-//W3C//DTD SVG 20010904//EN"
 "http://www.w3.org/TR/2001/REC-SVG-20010904/DTD/svg10.dtd">
<svg version="1.0" xmlns="http://www.w3.org/2000/svg"
 width="168.000000pt" height="167.000000pt" viewBox="0 0 168.000000 167.000000"
 preserveAspectRatio="xMidYMid meet">

<g transform="translate(0.000000,167.000000) scale(0.100000,-0.100000)"
fill="#000000" stroke="none">
<path d="M260 1651 c-88 -28 -183 -112 -223 -199 -22 -47 -22 -52 -22 -617 l0
-570 27 -57 c50 -107 146 -179 264 -198 83 -14 1005 -13 1080 1 119 22 223
107 264 215 20 55 20 70 18 623 l-3 566 -25 50 c-31 64 -101 134 -165 165
l-50 25 -570 2 c-314 1 -581 -2 -595 -6z m1182 -53 c70 -32 133 -96 167 -168
l26 -55 0 -540 0 -540 -33 -67 c-36 -73 -87 -124 -161 -160 l-46 -23 -555 0
-555 0 -57 28 c-67 33 -121 90 -157 166 l-26 56 0 540 c0 537 0 540 22 588 46
99 115 161 216 193 33 10 153 13 572 11 l530 -2 57 -27z"/>
<path d="M547 1444 c-4 -4 -7 -268 -7 -586 l0 -578 -90 0 -90 0 0 -35 0 -35
460 0 460 0 0 35 0 35 -120 0 c-89 0 -120 3 -121 13 -1 6 -2 148 -3 314 l-1
303 33 0 32 0 0 -255 c0 -314 3 -325 100 -325 101 0 100 -2 100 432 0 345 -1
365 -20 396 -12 20 -62 60 -130 104 -117 77 -111 68 -115 158 l-1 25 -240 3
c-132 1 -243 -1 -247 -4z m393 -204 l0 -130 -150 0 -150 0 0 130 0 130 150 0
150 0 0 -130z m142 3 c22 -21 28 -36 28 -70 0 -36 3 -43 19 -43 13 0 21 -8 23
-22 2 -19 10 -24 41 -26 l37 -3 0 -340 c0 -186 -2 -339 -4 -339 -2 0 -11 -3
-19 -6 -8 -3 -22 2 -31 11 -14 14 -16 49 -16 276 0 246 -1 260 -20 279 -14 14
-33 20 -63 20 l-43 0 2 128 c2 160 3 162 11 162 4 0 20 -12 35 -27z"/>
</g>
</svg>
