<?xml version="1.0" standalone="no"?>
<!DOCTYPE svg PUBLIC "-//W3C//DTD SVG 20010904//EN"
 "http://www.w3.org/TR/2001/REC-SVG-20010904/DTD/svg10.dtd">
<svg version="1.0" xmlns="http://www.w3.org/2000/svg"
 width="428.000000pt" height="429.000000pt" viewBox="0 0 428.000000 429.000000"
 preserveAspectRatio="xMidYMid meet">

<g transform="translate(0.000000,429.000000) scale(0.100000,-0.100000)"
fill="#000000" stroke="none">
<path d="M541 4235 c-233 -51 -426 -246 -476 -481 -22 -103 -22 -3034 0 -3139
37 -178 165 -344 326 -424 152 -75 50 -71 1724 -71 1674 0 1572 -4 1724 71
163 80 288 244 326 424 12 60 15 291 15 1570 0 1674 4 1572 -71 1724 -80 161
-246 289 -424 326 -102 21 -3046 21 -3144 0z m3154 -55 c211 -54 376 -225 420
-435 12 -60 15 -292 15 -1566 0 -1463 0 -1498 -20 -1574 -53 -207 -208 -362
-415 -415 -76 -20 -111 -20 -1574 -20 -1274 0 -1506 3 -1566 15 -210 44 -381
209 -435 420 -20 76 -20 111 -20 1574 0 1660 -3 1571 67 1711 73 144 224 260
383 294 54 12 322 15 1566 15 1469 1 1502 1 1579 -19z"/>
<path d="M1923 3939 c-495 -52 -964 -339 -1248 -764 -169 -253 -262 -520 -288
-827 -52 -626 242 -1231 768 -1583 799 -535 1874 -321 2410 480 535 798 320
1875 -480 2410 -343 230 -744 328 -1162 284z m418 -445 c175 -30 352 -102 509
-207 98 -65 273 -241 340 -341 49 -73 150 -269 150 -291 0 -7 -413 -10 -1220
-10 -807 0 -1220 3 -1220 10 0 22 101 218 150 291 72 108 245 278 350 347 163
105 326 171 495 201 112 20 330 20 446 0z m-126 -1091 c75 -38 118 -108 118
-193 0 -122 -91 -213 -213 -213 -122 0 -213 91 -213 213 0 160 165 264 308
193z m-1178 -224 c457 -116 798 -563 854 -1121 7 -65 9 -121 6 -124 -8 -9
-173 35 -255 67 -99 40 -143 62 -237 125 -341 225 -560 596 -582 988 l-6 98
74 -7 c41 -4 106 -16 146 -26z m2380 -66 c-27 -483 -356 -930 -817 -1111 -86
-34 -249 -77 -258 -68 -9 10 17 231 39 324 84 364 309 677 599 835 115 63 286
111 409 116 l34 1 -6 -97z"/>
</g>
</svg>
