<?xml version="1.0" standalone="no"?>
<!DOCTYPE svg PUBLIC "-//W3C//DTD SVG 20010904//EN"
 "http://www.w3.org/TR/2001/REC-SVG-20010904/DTD/svg10.dtd">
<svg version="1.0" xmlns="http://www.w3.org/2000/svg"
 width="428.000000pt" height="429.000000pt" viewBox="0 0 428.000000 429.000000"
 preserveAspectRatio="xMidYMid meet">

<g transform="translate(0.000000,429.000000) scale(0.100000,-0.100000)"
fill="#000000" stroke="none">
<path d="M541 4235 c-233 -51 -426 -246 -476 -481 -22 -103 -22 -3034 0 -3139
37 -178 165 -344 326 -424 152 -75 50 -71 1724 -71 1674 0 1572 -4 1724 71
163 80 288 244 326 424 12 60 15 291 15 1570 0 1674 4 1572 -71 1724 -80 161
-246 289 -424 326 -102 21 -3046 21 -3144 0z m3154 -55 c211 -54 376 -225 420
-435 12 -60 15 -292 15 -1566 0 -1463 0 -1498 -20 -1574 -53 -207 -208 -362
-415 -415 -76 -20 -111 -20 -1574 -20 -1274 0 -1506 3 -1566 15 -210 44 -381
209 -435 420 -20 76 -20 111 -20 1574 0 1660 -3 1571 67 1711 73 144 224 260
383 294 54 12 322 15 1566 15 1469 1 1502 1 1579 -19z"/>
<path d="M1654 2940 c-149 -11 -164 -18 -524 -275 -122 -87 -209 -141 -255
-160 -111 -44 -241 -112 -281 -147 -52 -46 -74 -99 -74 -180 0 -38 -4 -68 -9
-68 -11 0 -23 -130 -14 -170 4 -24 18 -40 52 -61 57 -37 95 -47 197 -55 l81
-7 5 69 c11 156 116 254 273 254 86 0 136 -21 187 -78 49 -55 65 -88 80 -166
l13 -66 190 1 c104 1 417 6 695 12 l505 12 7 53 c26 179 206 284 387 225 95
-30 164 -111 178 -208 l6 -45 56 1 c79 0 202 24 212 40 13 21 11 69 -3 74 -10
4 -12 53 -9 212 5 295 -13 462 -70 656 -16 54 -25 70 -45 77 -29 12 -1683 11
-1840 0z m191 -76 c8 -9 14 -24 11 -33 -2 -9 -8 -58 -11 -109 -6 -80 -11 -97
-33 -123 -48 -58 -95 -79 -210 -94 -158 -21 -151 -23 -200 40 -26 34 -51 55
-63 55 -34 0 -34 -29 1 -71 18 -23 28 -44 24 -49 -10 -9 -80 -17 -88 -10 -2 3
-6 52 -7 110 l-3 105 82 55 c145 99 256 136 414 139 49 1 71 -3 83 -15z
m-1004 -476 c-23 -24 -56 -64 -74 -90 -30 -44 -36 -47 -95 -58 -34 -6 -74 -15
-87 -20 -22 -8 -25 -7 -25 13 1 46 43 99 106 134 55 30 203 77 213 67 2 -2
-15 -23 -38 -46z"/>
<path d="M1031 2076 c-126 -41 -195 -206 -134 -321 103 -195 388 -157 432 57
35 169 -133 317 -298 264z m142 -108 c50 -26 72 -120 42 -178 -47 -91 -200
-75 -233 24 -37 115 83 212 191 154z"/>
<path d="M1074 1876 c-11 -28 1 -51 25 -51 28 0 47 25 38 49 -8 20 -56 21 -63
2z"/>
<path d="M3015 2081 c-122 -31 -199 -150 -174 -269 43 -210 331 -251 429 -62
74 144 -18 314 -180 333 -25 3 -58 2 -75 -2z m122 -116 c79 -52 74 -178 -8
-221 -60 -31 -145 -8 -175 48 -8 13 -13 41 -14 64 -1 103 112 165 197 109z"/>
<path d="M3037 1884 c-25 -25 8 -70 43 -59 32 10 24 59 -10 63 -14 2 -29 0
-33 -4z"/>
</g>
</svg>
