<?xml version="1.0" standalone="no"?>
<!DOCTYPE svg PUBLIC "-//W3C//DTD SVG 20010904//EN"
 "http://www.w3.org/TR/2001/REC-SVG-20010904/DTD/svg10.dtd">
<svg version="1.0" xmlns="http://www.w3.org/2000/svg"
 width="428.000000pt" height="429.000000pt" viewBox="0 0 428.000000 429.000000"
 preserveAspectRatio="xMidYMid meet">

<g transform="translate(0.000000,429.000000) scale(0.100000,-0.100000)"
fill="#000000" stroke="none">
<path d="M541 4235 c-233 -51 -426 -246 -476 -481 -22 -103 -22 -3034 0 -3139
37 -178 165 -344 326 -424 152 -75 50 -71 1724 -71 1674 0 1572 -4 1724 71
163 80 288 244 326 424 12 60 15 291 15 1570 0 1674 4 1572 -71 1724 -80 161
-246 289 -424 326 -102 21 -3046 21 -3144 0z m3154 -55 c211 -54 376 -225 420
-435 12 -60 15 -292 15 -1566 0 -1463 0 -1498 -20 -1574 -53 -207 -208 -362
-415 -415 -76 -20 -111 -20 -1574 -20 -1274 0 -1506 3 -1566 15 -210 44 -381
209 -435 420 -20 76 -20 111 -20 1574 0 1660 -3 1571 67 1711 73 144 224 260
383 294 54 12 322 15 1566 15 1469 1 1502 1 1579 -19z"/>
<path d="M1990 3954 c-8 -1 -46 -6 -84 -9 l-68 -7 6 -38 c5 -29 2 -39 -10 -44
-28 -11 -32 -7 -39 33 l-6 39 -57 -13 c-31 -8 -95 -26 -140 -40 -77 -24 -83
-28 -77 -48 14 -44 11 -62 -12 -65 -17 -2 -23 3 -28 27 -4 18 -13 31 -22 31
-19 0 -229 -109 -244 -126 -8 -10 -6 -21 8 -44 15 -27 16 -32 3 -40 -23 -14
-28 -12 -47 18 -9 15 -18 29 -19 31 -4 5 -133 -97 -189 -148 l-47 -43 28 -29
c26 -27 27 -30 11 -46 -16 -16 -19 -15 -47 12 l-30 28 -42 -48 c-24 -27 -62
-73 -86 -104 -46 -59 -46 -60 7 -90 10 -6 11 -13 2 -30 l-12 -22 -29 21 c-15
11 -32 20 -37 20 -12 0 -150 -248 -141 -254 2 -2 18 -8 35 -15 37 -15 37 -15
23 -42 -10 -18 -13 -18 -40 -4 -16 8 -31 15 -34 15 -9 0 -35 -69 -60 -155 -41
-143 -42 -132 5 -140 30 -5 39 -11 35 -22 -3 -8 -6 -19 -6 -24 0 -5 -17 -6
-40 -3 -35 6 -40 4 -45 -17 -8 -35 -25 -198 -25 -241 0 -38 0 -38 40 -38 33 0
40 -4 40 -19 0 -22 -14 -28 -54 -26 l-29 2 7 -91 c4 -50 10 -110 13 -134 l6
-43 41 3 c36 3 41 0 44 -19 3 -18 -3 -22 -36 -28 l-40 -6 13 -57 c8 -31 26
-95 40 -140 28 -89 28 -89 88 -66 10 3 20 -3 26 -15 10 -18 7 -22 -24 -35 -19
-8 -35 -20 -35 -26 0 -13 50 -115 97 -196 l36 -62 34 21 c29 17 36 18 44 6 13
-21 11 -27 -16 -45 -14 -9 -25 -21 -25 -28 0 -12 71 -106 138 -181 l42 -48 30
28 c28 27 31 28 47 12 16 -16 15 -19 -12 -47 l-28 -30 48 -42 c27 -24 73 -62
104 -86 59 -46 60 -46 90 7 6 10 13 11 30 2 l22 -12 -22 -35 c-12 -19 -20 -36
-18 -38 30 -22 240 -136 253 -136 2 0 10 16 16 35 13 39 13 39 40 25 17 -9 18
-13 4 -45 l-14 -35 37 -15 c37 -16 176 -58 224 -69 24 -5 27 -2 33 29 6 29 11
35 32 35 23 0 24 -3 18 -39 -6 -34 -4 -39 18 -44 34 -9 196 -27 241 -27 37 0
37 0 37 41 0 36 2 40 23 37 18 -2 23 -10 25 -42 l3 -39 82 7 c45 3 104 9 131
13 l48 6 -5 38 c-4 27 -1 39 10 43 27 11 32 6 39 -30 7 -36 7 -36 48 -30 22 4
85 20 139 37 98 30 99 30 92 57 -13 47 -11 57 11 60 16 2 23 -4 28 -23 4 -14
13 -28 20 -31 13 -5 152 61 228 108 l37 23 -19 25 c-24 31 -25 46 -3 55 12 4
25 -2 39 -21 26 -32 18 -35 152 75 l103 84 -26 27 c-23 24 -24 27 -8 43 16 16
19 15 44 -9 l27 -26 43 47 c23 25 62 72 87 103 46 60 46 61 -7 91 -10 6 -11
13 -2 30 l12 22 35 -22 c19 -12 36 -20 38 -18 22 30 136 240 136 253 0 2 -16
10 -35 16 -39 13 -39 13 -25 41 10 18 13 18 41 4 16 -9 34 -13 38 -10 9 5 73
201 85 256 5 24 2 27 -29 33 -29 6 -35 11 -35 32 0 23 3 24 39 18 34 -6 39 -4
44 18 9 34 27 196 27 241 0 37 0 37 -41 37 -36 0 -40 2 -37 23 2 15 10 22 26
23 59 4 55 -3 48 87 -3 45 -9 104 -13 131 l-6 48 -38 -5 c-27 -4 -39 -1 -43
10 -11 26 -6 31 33 38 l39 6 -20 77 c-10 42 -28 105 -40 140 -19 61 -21 63
-47 57 -46 -13 -56 -11 -59 11 -2 16 4 23 23 28 14 4 28 13 31 20 5 13 -61
152 -108 228 l-23 37 -25 -19 c-31 -24 -46 -25 -55 -3 -4 12 2 24 19 38 14 12
26 25 26 30 0 11 -75 109 -138 180 l-42 48 -28 -26 c-26 -25 -29 -26 -45 -10
-16 16 -15 19 11 46 l27 29 -30 25 c-16 13 -63 52 -104 85 -80 64 -79 64 -110
9 -6 -10 -13 -11 -30 -2 l-22 12 21 29 c11 15 20 32 20 37 0 12 -248 150 -254
141 -2 -2 -8 -18 -15 -35 -15 -37 -15 -37 -42 -23 -18 10 -18 13 -4 41 9 16
13 34 10 38 -5 9 -201 73 -257 85 -24 5 -27 3 -33 -33 -6 -34 -9 -37 -31 -33
-24 4 -25 15 -9 69 4 13 -80 29 -212 39 l-93 7 0 -42 c0 -34 -3 -41 -20 -41
-17 0 -20 7 -20 40 l0 40 -52 -1 c-29 -1 -60 -3 -68 -5z m413 -748 c184 -55
316 -133 448 -265 132 -132 211 -265 265 -448 31 -107 43 -313 25 -433 -16
-103 -69 -253 -122 -345 -129 -225 -359 -406 -614 -481 -128 -37 -339 -45
-475 -16 -205 43 -369 130 -516 276 -136 135 -213 263 -271 453 -25 82 -27
100 -27 273 0 173 2 191 27 273 105 340 342 590 661 696 134 44 181 50 356 47
132 -3 168 -8 243 -30z"/>
<path d="M1828 3055 c-140 -51 -287 -156 -383 -272 -61 -74 -71 -117 -36 -152
20 -20 173 -73 320 -111 98 -26 137 -21 185 20 47 42 56 89 56 303 0 179 -1
184 -23 205 -27 25 -64 27 -119 7z"/>
<path d="M2312 3050 c-24 -22 -24 -23 -20 -235 3 -197 5 -216 24 -241 38 -52
71 -69 127 -68 53 1 253 56 356 98 92 37 95 84 10 186 -74 90 -171 165 -285
222 -121 60 -178 70 -212 38z"/>
<path d="M2110 2563 c-61 -22 -79 -95 -35 -138 50 -51 135 -15 135 58 0 49
-57 95 -100 80z"/>
<path d="M1822 2357 c-30 -32 -29 -81 3 -112 72 -73 178 28 114 109 -27 35
-86 36 -117 3z"/>
<path d="M2322 2357 c-32 -34 -30 -89 4 -116 36 -28 79 -27 109 4 31 30 32 73
4 109 -27 35 -86 36 -117 3z"/>
<path d="M1260 2283 c-20 -26 -22 -35 -16 -115 9 -112 37 -223 82 -318 75
-159 124 -210 183 -189 33 12 193 225 245 326 22 44 20 108 -5 149 -25 40 -77
66 -260 128 -160 55 -198 58 -229 19z"/>
<path d="M2770 2264 c-180 -61 -237 -89 -261 -128 -23 -38 -25 -106 -3 -149
22 -41 104 -164 166 -247 100 -133 156 -111 258 102 53 110 80 222 83 334 3
153 -24 163 -243 88z"/>
<path d="M1919 2061 c-16 -16 -29 -36 -29 -45 0 -33 22 -68 51 -80 57 -24 103
1 115 62 5 26 1 36 -24 62 -39 39 -74 39 -113 1z"/>
<path d="M2229 2061 c-32 -33 -37 -65 -13 -99 35 -51 111 -46 140 9 18 36 10
73 -23 99 -36 28 -70 25 -104 -9z"/>
<path d="M2070 1822 c-39 -19 -114 -105 -213 -244 -101 -141 -90 -179 59 -219
163 -43 465 -19 531 43 43 41 33 74 -67 207 -171 229 -216 261 -310 213z"/>
</g>
</svg>
